<svg width="640" height="320" viewBox="0 0 640 320" fill="none" xmlns="http://www.w3.org/2000/svg">
  <rect width="640" height="320" fill="#F6F8FC"/>
  <path d="M84 164V98C84 79.2223 99.2223 64 118 64C136.778 64 152 79.2223 152 98V164" stroke="#2F66B3" stroke-width="18" stroke-linecap="round" stroke-linejoin="round"/>
  <path d="M154 164V74H178V164" stroke="#2F66B3" stroke-width="18" stroke-linecap="round" stroke-linejoin="round"/>
  <path d="M176 164C176 131.967 201.967 106 234 106V106C266.033 106 292 131.967 292 164" stroke="#F2B705" stroke-width="18" stroke-linecap="round" stroke-linejoin="round"/>
  <path d="M294 164C294 131.967 319.967 106 352 106V106C384.033 106 410 131.967 410 164" stroke="#F2B705" stroke-width="18" stroke-linecap="round" stroke-linejoin="round"/>
  <circle cx="170" cy="48" r="12" fill="#2F66B3"/>
  <circle cx="170" cy="48" r="5" fill="#F2B705"/>
  <text x="80" y="236" fill="#2F66B3" font-size="48" font-weight="800" font-family="Poppins, Avenir Next, Segoe UI, sans-serif">NOAH'S</text>
  <text x="286" y="236" fill="#F2B705" font-size="48" font-weight="800" font-family="Poppins, Avenir Next, Segoe UI, sans-serif">WAY</text>
  <text x="74" y="274" fill="#1F2937" font-size="22" letter-spacing="12" font-weight="600" font-family="Montserrat, Avenir Next, Segoe UI, sans-serif">TRAVEL &amp; TOURS</text>
</svg>
